<?xml version="1.0"?>
<svg version="1.1" xmlns="http://www.w3.org/2000/svg" width="200" height="70" style=""><path fill="#2b2b2b" d="M31.128,31.08c0,0.084-0.028,0.224-0.112,0.364l-5.768,10.668l0,7.364c0,0.42-0.224,0.644-0.644,0.644l-2.352,0c-0.42,0-0.644-0.224-0.644-0.7l0-7.168l-6.076-10.836c-0.056-0.112-0.084-0.196-0.084-0.28c0-0.224,0.196-0.392,0.504-0.392l2.548,0c0.504,0,0.84,0.168,1.036,0.532l4.032,7.924l0.056,0l3.976-7.868c0.224-0.448,0.448-0.588,0.98-0.588l2.016,0c0.336,0,0.532,0.112,0.532,0.336z M51.022,49.672c0,0.28-0.14,0.448-0.504,0.448l-2.492,0c-0.588,0-0.784-0.224-0.952-0.672l-1.456-4.116l-7.084,0l-1.456,4.2c-0.112,0.364-0.308,0.588-0.756,0.588l-2.492,0c-0.28,0-0.392-0.14-0.392-0.364c0-0.084,0-0.196,0.056-0.308l6.832-18.144c0.14-0.336,0.336-0.56,0.756-0.56l2.24,0c0.42,0,0.672,0.196,0.784,0.504l6.86,18.06c0.056,0.14,0.056,0.252,0.056,0.364z M44.666,42.616l-1.988-5.908c-0.252-0.784-0.42-1.372-0.56-1.82l-0.056,0c-0.14,0.476-0.308,1.064-0.588,1.848l-1.988,5.88l5.18,0z M69.04,31.08c0,0.084-0.028,0.224-0.112,0.364l-5.768,10.668l0,7.364c0,0.42-0.224,0.644-0.644,0.644l-2.352,0c-0.42,0-0.644-0.224-0.644-0.7l0-7.168l-6.076-10.836c-0.056-0.112-0.084-0.196-0.084-0.28c0-0.224,0.196-0.392,0.504-0.392l2.548,0c0.504,0,0.84,0.168,1.036,0.532l4.032,7.924l0.056,0l3.976-7.868c0.224-0.448,0.448-0.588,0.98-0.588l2.016,0c0.336,0,0.532,0.112,0.532,0.336z M85.014,49.448c0,0.448-0.196,0.672-0.672,0.672l-10.388,0c-0.56,0-0.756-0.14-0.756-0.756l0-17.92c0-0.448,0.196-0.7,0.644-0.7l10.556,0c0.448,0,0.588,0.168,0.588,0.476l0,0.168l-0.196,1.68c-0.056,0.504-0.364,0.588-0.952,0.588l-7.028,0l0,5.068l6.468,0c0.532,0,0.7,0.224,0.7,0.616l0,1.596c0,0.476-0.196,0.672-0.672,0.672l-6.496,0l0,5.6l7.504,0c0.476,0,0.7,0.196,0.7,0.644l0,1.596z M105.02,49.42c0,0.504-0.196,0.7-0.672,0.7l-2.212,0c-0.504,0-0.728-0.196-0.728-0.7l0-7.812l-7.952,0l0,7.812c0,0.504-0.224,0.7-0.7,0.7l-2.184,0c-0.504,0-0.756-0.196-0.756-0.7l0-18.004c0-0.476,0.308-0.672,0.756-0.672l2.184,0c0.448,0,0.7,0.168,0.7,0.672l0,7.308l7.952,0l0-7.308c0-0.476,0.28-0.672,0.728-0.672l2.212,0c0.448,0,0.672,0.168,0.672,0.672l0,18.004z M133.608,49.756c0,0.224-0.168,0.364-0.448,0.364l-2.8,0c-0.672,0-0.98-0.224-1.344-0.7l-6.048-7.756l-0.056,0l0,7.756c0,0.504-0.196,0.7-0.672,0.7l-2.24,0c-0.504,0-0.7-0.196-0.7-0.7l0-18.004c0-0.476,0.252-0.672,0.7-0.672l2.24,0c0.448,0,0.672,0.168,0.672,0.672l0,7.924l0.056,0l5.768-8.092c0.252-0.336,0.588-0.504,1.036-0.504l2.24,0c0.28,0,0.448,0.168,0.448,0.364c0,0.112-0.028,0.224-0.112,0.336l-6.44,8.652l7.448,9.156c0.14,0.168,0.252,0.364,0.252,0.504z M149.47,49.448c0,0.448-0.196,0.672-0.672,0.672l-10.388,0c-0.56,0-0.756-0.14-0.756-0.756l0-17.92c0-0.448,0.196-0.7,0.644-0.7l10.556,0c0.448,0,0.588,0.168,0.588,0.476l0,0.168l-0.196,1.68c-0.056,0.504-0.364,0.588-0.952,0.588l-7.028,0l0,5.068l6.468,0c0.532,0,0.7,0.224,0.7,0.616l0,1.596c0,0.476-0.196,0.672-0.672,0.672l-6.496,0l0,5.6l7.504,0c0.476,0,0.7,0.196,0.7,0.644l0,1.596z M167.936,44.464c0,4.536-3.668,5.656-7.644,5.656l-5.208,0c-0.588,0-0.728-0.224-0.728-0.812l0-17.836c0-0.588,0.252-0.728,0.84-0.728l4.2,0c4.508,0,7.028,1.372,7.028,4.732c0,1.96-1.12,3.668-3.164,4.116l0,0.028c2.66,0.196,4.676,2.016,4.676,4.844z M162.896,35.896c0-1.82-1.428-2.408-3.388-2.408l-1.568,0l0,5.208l1.456,0c2.044,0,3.5-0.532,3.5-2.8z M164.268,44.352c0-1.316-0.588-2.156-1.484-2.604c-0.868-0.42-1.82-0.504-2.996-0.504l-1.848,0l0,6.104l2.072,0c0.98,0,1.932-0.084,2.632-0.364c0.98-0.42,1.624-1.288,1.624-2.632z M186.766,31.444l-0.196,1.624c-0.056,0.476-0.364,0.588-0.868,0.588l-5.068,0l0,15.82c0,0.532-0.112,0.644-0.588,0.644l-2.464,0c-0.504,0-0.588-0.112-0.588-0.616l0-15.848l-5.236,0c-0.476,0-0.644-0.196-0.644-0.672l0-1.652c0-0.42,0.196-0.588,0.616-0.588l14.168,0c0.728,0,0.924,0.224,0.868,0.7z M202.376,49.448c0,0.448-0.196,0.672-0.672,0.672l-10.388,0c-0.56,0-0.756-0.14-0.756-0.756l0-17.92c0-0.448,0.196-0.7,0.644-0.7l10.556,0c0.448,0,0.588,0.168,0.588,0.476l0,0.168l-0.196,1.68c-0.056,0.504-0.364,0.588-0.952,0.588l-7.028,0l0,5.068l6.468,0c0.532,0,0.7,0.224,0.7,0.616l0,1.596c0,0.476-0.196,0.672-0.672,0.672l-6.496,0l0,5.6l7.504,0c0.476,0,0.7,0.196,0.7,0.644l0,1.596z"/><path fill="#" d=""/></svg>
